<svg width="16" height="17" viewBox="0 0 16 17" fill="none" xmlns="http://www.w3.org/2000/svg">
<path d="M7.33337 3.16669H2.66671C2.31309 3.16669 1.97395 3.30716 1.7239 3.55721C1.47385 3.80726 1.33337 4.1464 1.33337 4.50002V13.8334C1.33337 14.187 1.47385 14.5261 1.7239 14.7762C1.97395 15.0262 2.31309 15.1667 2.66671 15.1667H12C12.3537 15.1667 12.6928 15.0262 12.9428 14.7762C13.1929 14.5261 13.3334 14.187 13.3334 13.8334V9.16669" stroke="#6A7585" stroke-width="1.33333" stroke-linecap="round" stroke-linejoin="round"/>
<path d="M12.3334 2.16665C12.5986 1.90144 12.9583 1.75244 13.3334 1.75244C13.7084 1.75244 14.0682 1.90144 14.3334 2.16665C14.5986 2.43187 14.7476 2.79158 14.7476 3.16665C14.7476 3.54173 14.5986 3.90144 14.3334 4.16665L8.00004 10.5L5.33337 11.1667L6.00004 8.49999L12.3334 2.16665Z" stroke="#6A7585" stroke-width="1.33333" stroke-linecap="round" stroke-linejoin="round"/>
</svg>
