<svg width="140" height="40" viewBox="0 0 140 40" fill="none" xmlns="http://www.w3.org/2000/svg">
<path d="M20 0L23.4648 16.5352L40 20L23.4648 23.4648L20 40L16.5352 23.4648L0 20L16.5352 16.5352L20 0Z" fill="#09090B"/>
<path d="M57.4347 27V12.4545H66.7528V14.6634H60.0696V18.6122H66.1136V20.821H60.0696V27H57.4347ZM69.0398 27V16.0909H71.6108V27H69.0398ZM70.3324 14.5426C69.9252 14.5426 69.5748 14.4077 69.2812 14.1378C68.9877 13.8632 68.8409 13.5341 68.8409 13.1506C68.8409 12.7623 68.9877 12.4332 69.2812 12.1634C69.5748 11.8887 69.9252 11.7514 70.3324 11.7514C70.7443 11.7514 71.0947 11.8887 71.3835 12.1634C71.6771 12.4332 71.8239 12.7623 71.8239 13.1506C71.8239 13.5341 71.6771 13.8632 71.3835 14.1378C71.0947 14.4077 70.7443 14.5426 70.3324 14.5426ZM76.8256 20.608V27H74.2546V16.0909H76.712V17.9446H76.8398C77.0908 17.3338 77.4909 16.8485 78.0401 16.4886C78.5941 16.1288 79.2783 15.9489 80.0927 15.9489C80.8455 15.9489 81.5013 16.1098 82.06 16.4318C82.6235 16.7538 83.0591 17.2202 83.3668 17.831C83.6793 18.4418 83.8332 19.1828 83.8285 20.054V27H81.2575V20.4517C81.2575 19.7225 81.0681 19.152 80.6893 18.7401C80.3152 18.3281 79.7968 18.1222 79.1339 18.1222C78.6841 18.1222 78.284 18.2216 77.9336 18.4205C77.5879 18.6146 77.3157 18.8963 77.1168 19.2656C76.9227 19.6349 76.8256 20.0824 76.8256 20.608ZM99.006 17.3622H96.3498C96.274 16.9266 96.1344 16.5407 95.9308 16.2045C95.7272 15.8636 95.4738 15.5748 95.1708 15.3381C94.8678 15.1013 94.5221 14.9238 94.1339 14.8054C93.7504 14.6823 93.3361 14.6207 92.891 14.6207C92.1003 14.6207 91.3995 14.8196 90.7887 15.2173C90.1779 15.6103 89.6997 16.188 89.354 16.9503C89.0084 17.7079 88.8356 18.6335 88.8356 19.7273C88.8356 20.84 89.0084 21.7775 89.354 22.5398C89.7044 23.2973 90.1826 23.8703 90.7887 24.2585C91.3995 24.642 92.0979 24.8338 92.8839 24.8338C93.3195 24.8338 93.7267 24.777 94.1055 24.6634C94.489 24.545 94.8323 24.3722 95.1353 24.1449C95.4431 23.9176 95.7011 23.6383 95.9094 23.3068C96.1225 22.9754 96.2693 22.5966 96.3498 22.1705L99.006 22.1847C98.9066 22.8759 98.6912 23.5246 98.3597 24.1307C98.033 24.7367 97.6045 25.2718 97.0742 25.7358C96.5439 26.1951 95.9237 26.5549 95.2134 26.8153C94.5032 27.071 93.7148 27.1989 92.8484 27.1989C91.57 27.1989 90.4289 26.9029 89.4251 26.3111C88.4213 25.7192 87.6306 24.8646 87.0529 23.7472C86.4753 22.6297 86.1864 21.2898 86.1864 19.7273C86.1864 18.16 86.4776 16.8201 87.06 15.7074C87.6424 14.59 88.4355 13.7353 89.4393 13.1435C90.4431 12.5516 91.5794 12.2557 92.8484 12.2557C93.658 12.2557 94.4109 12.3693 95.1069 12.5966C95.8029 12.8239 96.4232 13.1577 96.9677 13.598C97.5122 14.0336 97.9596 14.5687 98.31 15.2031C98.6651 15.8329 98.8971 16.5526 99.006 17.3622ZM106.064 27.2131C104.999 27.2131 104.075 26.9787 103.294 26.5099C102.513 26.0412 101.907 25.3854 101.476 24.5426C101.05 23.6998 100.837 22.715 100.837 21.5881C100.837 20.4612 101.05 19.474 101.476 18.6264C101.907 17.7789 102.513 17.1207 103.294 16.652C104.075 16.1832 104.999 15.9489 106.064 15.9489C107.129 15.9489 108.053 16.1832 108.834 16.652C109.615 17.1207 110.219 17.7789 110.645 18.6264C111.076 19.474 111.291 20.4612 111.291 21.5881C111.291 22.715 111.076 23.6998 110.645 24.5426C110.219 25.3854 109.615 26.0412 108.834 26.5099C108.053 26.9787 107.129 27.2131 106.064 27.2131ZM106.078 25.1534C106.656 25.1534 107.139 24.9948 107.527 24.6776C107.915 24.3556 108.204 23.9247 108.393 23.3849C108.588 22.8452 108.685 22.2438 108.685 21.581C108.685 20.9134 108.588 20.3097 108.393 19.7699C108.204 19.2254 107.915 18.7921 107.527 18.4702C107.139 18.1482 106.656 17.9872 106.078 17.9872C105.486 17.9872 104.994 18.1482 104.601 18.4702C104.213 18.7921 103.921 19.2254 103.727 19.7699C103.538 20.3097 103.443 20.9134 103.443 21.581C103.443 22.2438 103.538 22.8452 103.727 23.3849C103.921 23.9247 104.213 24.3556 104.601 24.6776C104.994 24.9948 105.486 25.1534 106.078 25.1534ZM118.999 16.0909V18.0795H112.55V16.0909H118.999ZM114.162 27V15.0611C114.162 14.3272 114.314 13.7164 114.617 13.2287C114.925 12.741 115.337 12.3764 115.853 12.1349C116.369 11.8935 116.942 11.7727 117.571 11.7727C118.016 11.7727 118.412 11.8082 118.757 11.8793C119.103 11.9503 119.359 12.0142 119.525 12.071L119.013 14.0597C118.904 14.0265 118.767 13.9934 118.601 13.9602C118.435 13.9223 118.251 13.9034 118.047 13.9034C117.569 13.9034 117.23 14.0194 117.032 14.2514C116.837 14.4787 116.74 14.8054 116.74 15.2315V27H114.162ZM121.012 27V16.0909H123.505V17.9091H123.619C123.818 17.2794 124.159 16.794 124.642 16.4531C125.129 16.1075 125.686 15.9347 126.311 15.9347C126.453 15.9347 126.611 15.9418 126.787 15.956C126.967 15.9654 127.116 15.982 127.234 16.0057V18.3707C127.125 18.3329 126.952 18.2997 126.716 18.2713C126.484 18.2382 126.259 18.2216 126.041 18.2216C125.572 18.2216 125.151 18.3234 124.777 18.527C124.407 18.7259 124.116 19.0028 123.903 19.358C123.69 19.7131 123.583 20.1226 123.583 20.5866V27H121.012ZM133.322 27.2131C132.229 27.2131 131.284 26.9858 130.489 26.5312C129.698 26.072 129.089 25.4233 128.663 24.5852C128.237 23.7424 128.024 22.7505 128.024 21.6094C128.024 20.4872 128.237 19.5024 128.663 18.6548C129.094 17.8026 129.696 17.1397 130.467 16.6662C131.239 16.188 132.146 15.9489 133.188 15.9489C133.86 15.9489 134.494 16.0578 135.091 16.2756C135.692 16.4886 136.223 16.8201 136.682 17.2699C137.146 17.7197 137.51 18.2926 137.776 18.9886C138.041 19.6799 138.173 20.5038 138.173 21.4602V22.2486H129.232V20.5156H135.709C135.704 20.0232 135.598 19.5852 135.389 19.2017C135.181 18.8134 134.89 18.508 134.516 18.2855C134.146 18.063 133.715 17.9517 133.223 17.9517C132.697 17.9517 132.236 18.0795 131.838 18.3352C131.44 18.5862 131.13 18.9176 130.908 19.3295C130.69 19.7367 130.579 20.1842 130.574 20.6719V22.1847C130.574 22.8191 130.69 23.3636 130.922 23.8182C131.154 24.268 131.478 24.6136 131.895 24.8551C132.312 25.0919 132.799 25.2102 133.358 25.2102C133.732 25.2102 134.071 25.1581 134.374 25.054C134.677 24.9451 134.939 24.7865 135.162 24.5781C135.384 24.3698 135.553 24.1117 135.666 23.804L138.067 24.0739C137.915 24.7083 137.626 25.2623 137.2 25.7358C136.779 26.2045 136.239 26.5691 135.581 26.8295C134.923 27.0852 134.17 27.2131 133.322 27.2131Z" fill="#09090B"/>
</svg>
